<svg width="40" height="40" viewBox="0 0 40 40" fill="none" xmlns="http://www.w3.org/2000/svg">
<path d="M17.303 25.1853H10.5622V31.6668M22.6957 14.815H29.4365V8.3335M10 16.1152C10.756 14.3165 12.0217 12.7578 13.653 11.6162C15.2844 10.4746 17.2161 9.79592 19.2286 9.65724C21.2411 9.51857 23.2537 9.92548 25.0376 10.8317C26.8216 11.738 28.3055 13.1072 29.3205 14.7839M30 23.8852C29.2441 25.6842 27.9785 27.2432 26.347 28.385C24.7155 29.5269 22.7836 30.2057 20.7708 30.3444C18.7581 30.4831 16.7452 30.076 14.9611 29.1695C13.1769 28.263 11.6931 26.8935 10.6781 25.2165" stroke="#080709" stroke-width="2.5" stroke-linecap="round" stroke-linejoin="round"/>
</svg>
