<svg width="41" height="40" viewBox="0 0 41 40" fill="none" xmlns="http://www.w3.org/2000/svg">
<path d="M17.803 25.1853H11.0622V31.6668M23.1957 14.815H29.9365V8.3335M10.5 16.1152C11.256 14.3165 12.5217 12.7578 14.153 11.6162C15.7844 10.4746 17.7161 9.79592 19.7286 9.65724C21.7411 9.51857 23.7537 9.92548 25.5376 10.8317C27.3216 11.738 28.8055 13.1072 29.8205 14.7839M30.5 23.8852C29.7441 25.6842 28.4785 27.2432 26.847 28.385C25.2155 29.5269 23.2836 30.2057 21.2708 30.3444C19.2581 30.4831 17.2452 30.076 15.4611 29.1695C13.6769 28.263 12.1931 26.8935 11.1781 25.2165" stroke="#080709" stroke-width="4" stroke-linecap="round" stroke-linejoin="round"/>
</svg>
