<svg width="10" height="12" viewBox="0 0 10 12" fill="none" xmlns="http://www.w3.org/2000/svg">
<path d="M1.61538 2.875L2.08547 10.2045C2.1078 10.6642 2.42393 11 2.83761 11H7.16239C7.57771 11 7.88797 10.6642 7.91453 10.2045L8.38462 2.875M1 2.875H9M3.63248 2.59091V1.59659C3.63228 1.51818 3.64541 1.4405 3.67111 1.36802C3.69681 1.29553 3.73458 1.22967 3.78224 1.17423C3.8299 1.11878 3.88651 1.07485 3.94882 1.04495C4.01113 1.01505 4.0779 0.999773 4.1453 1H5.8547C5.9221 0.999773 5.98887 1.01505 6.05118 1.04495C6.11349 1.07485 6.1701 1.11878 6.21776 1.17423C6.26542 1.22967 6.30319 1.29553 6.32889 1.36802C6.35459 1.4405 6.36772 1.51818 6.36752 1.59659V2.59091" stroke="#CD9EFF" stroke-width="1.5" stroke-linecap="round" stroke-linejoin="round"/>
</svg>
