<svg width="24" height="24" viewBox="0 0 24 24" fill="none" xmlns="http://www.w3.org/2000/svg">
<path d="M20.5009 20.9864C20.4024 20.9866 20.3049 20.9672 20.2139 20.9295C20.1229 20.8918 20.0403 20.8364 19.9708 20.7666L3.47078 4.26658C3.33606 4.12478 3.26207 3.93597 3.26457 3.7404C3.26708 3.54483 3.34588 3.35797 3.48418 3.21967C3.62248 3.08137 3.80934 3.00257 4.00491 3.00006C4.20048 2.99756 4.38929 3.07155 4.53109 3.20627L21.0311 19.7063C21.1359 19.8112 21.2073 19.9448 21.2362 20.0902C21.2651 20.2356 21.2503 20.3864 21.1935 20.5234C21.1368 20.6604 21.0407 20.7775 20.9174 20.8599C20.7942 20.9423 20.6492 20.9864 20.5009 20.9864ZM12.235 17.9864C10.2902 17.9864 8.41469 17.4108 6.66062 16.2755C5.06359 15.2442 3.62593 13.7672 2.50281 12.0099V12.0061C3.4375 10.6669 4.46125 9.53439 5.56094 8.62127C5.57088 8.61295 5.579 8.60266 5.58477 8.59105C5.59053 8.57943 5.59383 8.56675 5.59445 8.5538C5.59506 8.54085 5.59299 8.52791 5.58835 8.5158C5.58371 8.50369 5.57661 8.49268 5.5675 8.48345L4.63375 7.55111C4.61715 7.53438 4.59487 7.52451 4.57133 7.52347C4.54779 7.52243 4.52472 7.53029 4.50672 7.54548C3.33859 8.52986 2.25437 9.73736 1.26859 11.1511C1.09899 11.3945 1.00558 11.6829 1.00024 11.9795C0.994901 12.2761 1.07786 12.5677 1.23859 12.817C2.47656 14.7544 4.06984 16.3861 5.84547 17.535C7.84468 18.8302 9.99625 19.4864 12.235 19.4864C13.4434 19.4827 14.6433 19.2835 15.7881 18.8967C15.8032 18.8916 15.8168 18.8827 15.8275 18.8709C15.8382 18.8591 15.8457 18.8447 15.8493 18.8292C15.8529 18.8137 15.8525 18.7975 15.8481 18.7821C15.8437 18.7668 15.8355 18.7528 15.8242 18.7416L14.8127 17.73C14.7894 17.7073 14.7606 17.691 14.7291 17.6828C14.6976 17.6746 14.6645 17.6747 14.6331 17.6831C13.8497 17.8849 13.044 17.9868 12.235 17.9864ZM23.2591 11.1708C22.0187 9.25267 20.4095 7.6233 18.6058 6.45845C16.6103 5.16845 14.4072 4.48642 12.235 4.48642C11.0394 4.48854 9.85266 4.69185 8.72453 5.08783C8.7095 5.09306 8.69605 5.10203 8.68544 5.1139C8.67483 5.12576 8.66742 5.14013 8.66391 5.15565C8.66039 5.17118 8.66088 5.18734 8.66534 5.20262C8.66979 5.21789 8.67806 5.23179 8.68937 5.24298L9.69953 6.25314C9.72305 6.27626 9.75224 6.29276 9.78417 6.30099C9.81611 6.30922 9.84964 6.30889 9.8814 6.30002C10.6487 6.09244 11.4401 5.987 12.235 5.98642C14.1423 5.98642 16.0122 6.56908 17.792 7.7208C19.4191 8.7708 20.8736 10.2464 21.9995 11.9864C22.0004 11.9875 22.0008 11.9888 22.0008 11.9902C22.0008 11.9915 22.0004 11.9929 21.9995 11.9939C21.1822 13.2806 20.168 14.431 18.9939 15.4031C18.9839 15.4114 18.9756 15.4217 18.9698 15.4334C18.9639 15.445 18.9606 15.4577 18.9599 15.4707C18.9592 15.4837 18.9613 15.4967 18.9659 15.5089C18.9706 15.5211 18.9777 15.5322 18.9869 15.5414L19.9197 16.4738C19.9362 16.4904 19.9584 16.5003 19.9818 16.5014C20.0052 16.5026 20.0282 16.4949 20.0462 16.4799C21.2997 15.4245 22.3847 14.1839 23.2637 12.8011C23.4191 12.5574 23.5013 12.2743 23.5005 11.9853C23.4996 11.6963 23.4158 11.4136 23.2591 11.1708Z" fill="#080709"/>
<path d="M12.2509 7.48438C11.9139 7.48419 11.5779 7.52193 11.2492 7.59688C11.2326 7.60032 11.2173 7.60821 11.2048 7.61969C11.1923 7.63117 11.1832 7.64581 11.1784 7.66207C11.1736 7.67833 11.1733 7.69558 11.1775 7.712C11.1817 7.72842 11.1903 7.74339 11.2024 7.75531L16.48 13.0316C16.4919 13.0436 16.5069 13.0522 16.5233 13.0564C16.5397 13.0606 16.557 13.0603 16.5733 13.0555C16.5895 13.0507 16.6042 13.0416 16.6156 13.0291C16.6271 13.0166 16.635 13.0013 16.6384 12.9847C16.7887 12.3256 16.7886 11.6412 16.638 10.9822C16.4875 10.3233 16.1904 9.70665 15.7689 9.17822C15.3474 8.64979 14.8123 8.22311 14.2032 7.92987C13.5942 7.63663 12.9269 7.48436 12.2509 7.48438ZM8.02189 10.9372C8.00996 10.9251 7.995 10.9165 7.97858 10.9123C7.96216 10.9081 7.9449 10.9084 7.92864 10.9132C7.91239 10.918 7.89774 10.9272 7.88626 10.9396C7.87478 10.9521 7.86689 10.9675 7.86345 10.9841C7.69345 11.7267 7.7148 12.5004 7.92549 13.2326C8.13617 13.9647 8.5293 14.6314 9.06802 15.1701C9.60674 15.7088 10.2734 16.102 11.0056 16.3127C11.7377 16.5233 12.5114 16.5447 13.2541 16.3747C13.2707 16.3712 13.286 16.3634 13.2985 16.3519C13.311 16.3404 13.3201 16.3257 13.3249 16.3095C13.3297 16.2932 13.33 16.276 13.3258 16.2596C13.3216 16.2431 13.313 16.2282 13.3009 16.2163L8.02189 10.9372Z" fill="#080709"/>
</svg>
