<svg width="24" height="24" viewBox="0 0 24 24" fill="none" xmlns="http://www.w3.org/2000/svg">
<path d="M12 0C18.6274 0 24 5.40546 24 12.0733C24 18.0995 19.6117 23.0943 13.875 24V15.5633H16.6711L17.2031 12.0733H13.875V9.80864C13.875 9.58491 13.9005 9.3625 13.9588 9.15308C14.1181 8.58048 14.5222 8.10497 15.3186 7.96498C15.474 7.93767 15.6443 7.92313 15.8306 7.92313H17.3438V4.95195C17.3438 4.95195 15.9705 4.71615 14.6576 4.71615H14.6575C14.5719 4.71615 14.4872 4.71778 14.4035 4.72103C14.1423 4.73118 13.8904 4.75709 13.6486 4.79847C12.4163 5.00933 11.4446 5.62191 10.8364 6.59745C10.3769 7.33449 10.125 8.27872 10.125 9.41343V12.0733H7.07812V15.5633H10.125V24C4.38825 23.0943 0 18.0994 0 12.0733C0 5.40546 5.37262 0 12 0Z" fill="#1877F2"/>
</svg>
