<svg width="41" height="40" viewBox="0 0 41 40" fill="none" xmlns="http://www.w3.org/2000/svg">
<path d="M10.6284 28.3312C10.6284 29.2159 11.0066 30.0643 11.6798 30.6898C12.353 31.3154 13.2661 31.6668 14.2181 31.6668H19.3784C19.4379 31.6668 19.4949 31.6449 19.537 31.6058C19.5791 31.5667 19.6027 31.5136 19.6027 31.4584V21.8684C19.6027 21.8131 19.5791 21.7601 19.537 21.721C19.4949 21.6819 19.4379 21.66 19.3784 21.66H11.0771C10.9581 21.66 10.8439 21.7039 10.7598 21.7821C10.6756 21.8603 10.6284 21.9663 10.6284 22.0769V28.3312ZM19.6027 19.7837V14.1548H21.3976V19.7837C21.3976 19.839 21.4212 19.892 21.4633 19.9311C21.5054 19.9702 21.5625 19.9922 21.622 19.9922H29.4745C29.7803 19.9921 30.0838 19.9437 30.372 19.8488C30.8964 19.6758 31.3504 19.3563 31.6718 18.934C31.9931 18.5118 32.166 18.0076 32.1668 17.4904V16.6565C32.1668 15.993 31.8832 15.3567 31.3783 14.8875C30.8734 14.4184 30.1886 14.1548 29.4745 14.1548H27.2006C27.1811 14.1545 27.162 14.1495 27.1452 14.1402C27.1284 14.131 27.1145 14.1178 27.1048 14.102C27.0952 14.0862 27.0902 14.0683 27.0903 14.0502C27.0903 14.032 27.0955 14.0142 27.1053 13.9985C27.6246 13.1838 27.7933 12.2168 27.5775 11.2914C27.3617 10.366 26.7774 9.55064 25.9417 9.00876C25.1061 8.46689 24.0809 8.23858 23.0717 8.36962C22.0625 8.50065 21.1439 8.98134 20.5002 9.71531C19.8564 8.98134 18.9378 8.50065 17.9286 8.36962C16.9194 8.23858 15.8942 8.46689 15.0586 9.00876C14.223 9.55064 13.6387 10.366 13.4229 11.2914C13.2071 12.2168 13.3757 13.1838 13.895 13.9985C13.9048 14.0142 13.91 14.032 13.9101 14.0502C13.9102 14.0683 13.9051 14.0862 13.8955 14.102C13.8859 14.1178 13.8719 14.131 13.8551 14.1402C13.8383 14.1495 13.8192 14.1545 13.7997 14.1548H11.5258C10.8118 14.1548 10.127 14.4184 9.62205 14.8875C9.11715 15.3567 8.8335 15.993 8.8335 16.6565V17.4904C8.83429 18.0076 9.00721 18.5118 9.32855 18.934C9.64988 19.3563 10.1039 19.6758 10.6284 19.8488C10.9166 19.9437 11.2201 19.9921 11.5258 19.9922H19.3784C19.4379 19.9922 19.4949 19.9702 19.537 19.9311C19.5791 19.892 19.6027 19.839 19.6027 19.7837ZM21.3976 12.07C21.3976 11.6577 21.5292 11.2547 21.7757 10.9118C22.0222 10.569 22.3726 10.3018 22.7826 10.144C23.1926 9.98619 23.6437 9.9449 24.0789 10.0253C24.5141 10.1058 24.9139 10.3043 25.2276 10.5959C25.5414 10.8875 25.7551 11.2589 25.8417 11.6633C25.9282 12.0677 25.8838 12.4869 25.714 12.8679C25.5442 13.2488 25.2566 13.5744 24.8877 13.8035C24.5187 14.0325 24.0849 14.1548 23.6412 14.1548H21.3976V12.07ZM17.1987 9.9905C17.5061 9.97002 17.8147 10.0086 18.1053 10.1038C18.3959 10.1991 18.6623 10.3489 18.8879 10.544C19.1134 10.7391 19.2933 10.9753 19.4163 11.2379C19.5393 11.5004 19.6027 11.7837 19.6027 12.07V14.1548H17.3591C16.779 14.1534 16.222 13.9433 15.805 13.5685C15.388 13.1937 15.1435 12.6834 15.1227 12.1446C15.102 11.6059 15.3066 11.0807 15.6937 10.6791C16.0808 10.2776 16.6202 10.0309 17.1987 9.99102V9.9905ZM21.622 31.6668H26.7822C27.7343 31.6668 28.6473 31.3154 29.3205 30.6898C29.9938 30.0643 30.372 29.2159 30.372 28.3312V22.0769C30.372 21.9663 30.3247 21.8603 30.2405 21.7821C30.1564 21.7039 30.0422 21.66 29.9232 21.66H21.622C21.5625 21.66 21.5054 21.6819 21.4633 21.721C21.4212 21.7601 21.3976 21.8131 21.3976 21.8684V31.4584C21.3976 31.5136 21.4212 31.5667 21.4633 31.6058C21.5054 31.6449 21.5625 31.6668 21.622 31.6668Z" fill="#080709"/>
</svg>
