<svg width="40" height="40" viewBox="0 0 40 40" fill="none" xmlns="http://www.w3.org/2000/svg">
<path d="M10.1279 28.3312C10.1279 29.2159 10.5061 30.0643 11.1793 30.6898C11.8525 31.3154 12.7656 31.6668 13.7176 31.6668H18.8779C18.9374 31.6668 18.9945 31.6449 19.0365 31.6058C19.0786 31.5667 19.1022 31.5136 19.1022 31.4584V21.8684C19.1022 21.8131 19.0786 21.7601 19.0365 21.721C18.9945 21.6819 18.9374 21.66 18.8779 21.66H10.5766C10.4576 21.66 10.3435 21.7039 10.2593 21.7821C10.1752 21.8603 10.1279 21.9663 10.1279 22.0769V28.3312ZM19.1022 19.7837V14.1548H20.8971V19.7837C20.8971 19.839 20.9207 19.892 20.9628 19.9311C21.0049 19.9702 21.062 19.9922 21.1215 19.9922H28.974C29.2798 19.9921 29.5833 19.9437 29.8715 19.8488C30.3959 19.6758 30.85 19.3563 31.1713 18.934C31.4926 18.5118 31.6655 18.0076 31.6663 17.4904V16.6565C31.6663 15.993 31.3827 15.3567 30.8778 14.8875C30.3729 14.4184 29.6881 14.1548 28.974 14.1548H26.7002C26.6806 14.1545 26.6615 14.1495 26.6447 14.1402C26.6279 14.131 26.614 14.1178 26.6043 14.102C26.5947 14.0862 26.5897 14.0683 26.5898 14.0502C26.5898 14.032 26.595 14.0142 26.6048 13.9985C27.1241 13.1838 27.2928 12.2168 27.077 11.2914C26.8612 10.366 26.2769 9.55064 25.4412 9.00876C24.6056 8.46689 23.5804 8.23858 22.5712 8.36962C21.562 8.50065 20.6434 8.98134 19.9997 9.71531C19.3559 8.98134 18.4373 8.50065 17.4281 8.36962C16.4189 8.23858 15.3937 8.46689 14.5581 9.00876C13.7225 9.55064 13.1382 10.366 12.9224 11.2914C12.7066 12.2168 12.8752 13.1838 13.3945 13.9985C13.4043 14.0142 13.4095 14.032 13.4096 14.0502C13.4097 14.0683 13.4046 14.0862 13.395 14.102C13.3854 14.1178 13.3715 14.131 13.3547 14.1402C13.3379 14.1495 13.3187 14.1545 13.2992 14.1548H11.0253C10.3113 14.1548 9.62647 14.4184 9.12157 14.8875C8.61666 15.3567 8.33301 15.993 8.33301 16.6565V17.4904C8.3338 18.0076 8.50672 18.5118 8.82806 18.934C9.1494 19.3563 9.60342 19.6758 10.1279 19.8488C10.4161 19.9437 10.7196 19.9921 11.0253 19.9922H18.8779C18.9374 19.9922 18.9945 19.9702 19.0365 19.9311C19.0786 19.892 19.1022 19.839 19.1022 19.7837ZM20.8971 12.07C20.8971 11.6577 21.0287 11.2547 21.2752 10.9118C21.5218 10.569 21.8722 10.3018 22.2821 10.144C22.6921 9.98619 23.1432 9.9449 23.5784 10.0253C24.0136 10.1058 24.4134 10.3043 24.7272 10.5959C25.0409 10.8875 25.2546 11.2589 25.3412 11.6633C25.4277 12.0677 25.3833 12.4869 25.2135 12.8679C25.0437 13.2488 24.7561 13.5744 24.3872 13.8035C24.0182 14.0325 23.5844 14.1548 23.1407 14.1548H20.8971V12.07ZM16.6982 9.9905C17.0056 9.97002 17.3142 10.0086 17.6048 10.1038C17.8954 10.1991 18.1618 10.3489 18.3874 10.544C18.6129 10.7391 18.7928 10.9753 18.9158 11.2379C19.0388 11.5004 19.1023 11.7837 19.1022 12.07V14.1548H16.8586C16.2785 14.1534 15.7215 13.9433 15.3045 13.5685C14.8875 13.1937 14.643 12.6834 14.6223 12.1446C14.6015 11.6059 14.8061 11.0807 15.1932 10.6791C15.5803 10.2776 16.1197 10.0309 16.6982 9.99102V9.9905ZM21.1215 31.6668H26.2817C27.2338 31.6668 28.1469 31.3154 28.8201 30.6898C29.4933 30.0643 29.8715 29.2159 29.8715 28.3312V22.0769C29.8715 21.9663 29.8242 21.8603 29.74 21.7821C29.6559 21.7039 29.5418 21.66 29.4228 21.66H21.1215C21.062 21.66 21.0049 21.6819 20.9628 21.721C20.9207 21.7601 20.8971 21.8131 20.8971 21.8684V31.4584C20.8971 31.5136 20.9207 31.5667 20.9628 31.6058C21.0049 31.6449 21.062 31.6668 21.1215 31.6668Z" fill="#080709"/>
</svg>
