<svg width="24" height="24" viewBox="0 0 24 24" fill="none" xmlns="http://www.w3.org/2000/svg">
<path d="M23.7666 9.6498H22.8V9.6H12V14.4H18.7818C17.7924 17.1942 15.1338 19.2 12 19.2C8.0238 19.2 4.8 15.9762 4.8 12C4.8 8.0238 8.0238 4.8 12 4.8C13.8354 4.8 15.5052 5.4924 16.7766 6.6234L20.1708 3.2292C18.0276 1.2318 15.1608 0 12 0C5.373 0 0 5.373 0 12C0 18.627 5.373 24 12 24C18.627 24 24 18.627 24 12C24 11.1954 23.9172 10.41 23.7666 9.6498Z" fill="#FFC107"/>
<path d="M1.38362 6.4146L5.32622 9.306C6.39302 6.6648 8.9766 4.8 12 4.8C13.8354 4.8 15.5052 5.4924 16.7766 6.6234L20.1708 3.2292C18.0276 1.2318 15.1608 0 12 0C7.3908 0 3.39362 2.6022 1.38362 6.4146Z" fill="#FF3D00"/>
<path d="M12 24C15.0996 24 17.916 22.8139 20.0454 20.8849L16.3314 17.7421C15.0861 18.6892 13.5645 19.2012 12 19.2C8.8788 19.2 6.2286 17.2099 5.2302 14.4325L1.317 17.4475C3.303 21.3337 7.3362 24 12 24Z" fill="#4CAF50"/>
<path d="M23.7666 9.6498H22.8V9.6H12V14.4H18.7818C18.3085 15.7298 17.456 16.8919 16.3296 17.7426L16.3314 17.7414L20.0454 20.8842C19.7826 21.123 24 18 24 12C24 11.1954 23.9172 10.41 23.7666 9.6498Z" fill="#1976D2"/>
<path d="M5.00987 15.2335L1.95732 17.5854C3.87742 21.0312 7.50804 23.3897 11.7032 23.4962C11.8018 23.4987 11.9008 23.5 12 23.5C14.7634 23.5 17.2921 22.5164 19.2757 20.8886L16.3091 18.3782C15.2166 19.1201 13.923 19.5879 12.5256 19.6823M12.5256 19.6823C12.351 19.6942 12.1755 19.7001 11.9996 19.7L12 19.2V19.7C12.1767 19.7 12.352 19.694 12.5256 19.6823ZM0.5 12C0.5 10.2733 0.880612 8.63551 1.56251 7.16584L4.7211 9.48227C4.44822 10.2712 4.3 11.1183 4.3 12C4.3 12.7859 4.41777 13.5444 4.63663 14.2587L1.49277 16.6809C0.854713 15.251 0.5 13.6669 0.5 12ZM5.1215 8.53582L2.03355 6.27119C3.96216 2.92261 7.52284 0.635918 11.6298 0.505847C11.7527 0.501959 11.8761 0.5 12 0.5C14.8417 0.5 17.4356 1.53878 19.4429 3.24998L16.7464 5.94647C15.4397 4.91859 13.7938 4.3 12 4.3C11.8422 4.3 11.6855 4.30475 11.5301 4.31411C8.72393 4.48308 6.32292 6.15515 5.1215 8.53582Z" stroke="#727076"/>
</svg>
