<svg width="40" height="40" viewBox="0 0 40 40" fill="none" xmlns="http://www.w3.org/2000/svg">
<path d="M6.59375 8.75H15.5937C16.2117 8.75 17.0772 9.10477 17.5138 9.53672L28.6722 20.579C28.8827 20.7882 29.0008 21.0713 29.0008 21.3664C29.0008 21.6616 28.8827 21.9447 28.6722 22.1539L19.0138 31.7118C18.8024 31.92 18.5163 32.0369 18.218 32.0369C17.9198 32.0369 17.6336 31.92 17.4222 31.7118L6.26375 20.6695C5.82575 20.2361 5.46875 19.3811 5.46875 18.7695V9.86328C5.46954 9.56826 5.58832 9.28555 5.79913 9.07694C6.00994 8.86833 6.29562 8.75078 6.59375 8.75ZM12.2187 17.6562C12.5143 17.6562 12.807 17.5984 13.08 17.4864C13.3531 17.3744 13.6011 17.2103 13.8101 17.0034C14.019 16.7965 14.1847 16.5509 14.2977 16.2806C14.4107 16.0103 14.4688 15.7207 14.4687 15.4282C14.4687 15.1357 14.4103 14.8461 14.2971 14.5759C14.1839 14.3057 14.0181 14.0602 13.809 13.8535C13.5999 13.6467 13.3517 13.4827 13.0786 13.3709C12.8055 13.2591 12.5128 13.2015 12.2173 13.2016C11.6203 13.2018 11.0479 13.4367 10.6259 13.8545C10.204 14.2724 9.96705 14.839 9.96725 15.4297C9.96745 16.0204 10.2048 16.5869 10.627 17.0044C11.0492 17.422 11.6218 17.6564 12.2187 17.6562Z" fill="#080709"/>
<path d="M32.4687 21.3672L19.7187 8.75H21.5938C22.2118 8.75 23.0772 9.10477 23.5138 9.53672L34.6722 20.579C34.8827 20.7882 35.0008 21.0713 35.0008 21.3664C35.0008 21.6616 34.8827 21.9447 34.6722 22.1539L25.0137 31.7118C24.8024 31.92 24.5162 32.0369 24.218 32.0369C23.9197 32.0369 23.6336 31.92 23.4222 31.7118L22.7172 31.0141L32.4672 21.3657L32.4687 21.3672Z" fill="#080709"/>
</svg>
