<svg width="41" height="40" viewBox="0 0 41 40" fill="none" xmlns="http://www.w3.org/2000/svg">
<path d="M7.09375 8.75H16.0937C16.7117 8.75 17.5772 9.10477 18.0137 9.53672L29.1722 20.579C29.3826 20.7882 29.5008 21.0713 29.5008 21.3664C29.5008 21.6616 29.3826 21.9447 29.1722 22.1539L19.5137 31.7118C19.3024 31.92 19.0163 32.0369 18.718 32.0369C18.4197 32.0369 18.1336 31.92 17.9222 31.7118L6.76375 20.6695C6.32575 20.2361 5.96875 19.3811 5.96875 18.7695V9.86328C5.96954 9.56826 6.08832 9.28555 6.29913 9.07694C6.50994 8.86833 6.79562 8.75078 7.09375 8.75ZM12.7187 17.6562C13.0143 17.6562 13.307 17.5984 13.58 17.4864C13.8531 17.3744 14.1011 17.2103 14.3101 17.0034C14.519 16.7965 14.6847 16.5509 14.7977 16.2806C14.9107 16.0103 14.9688 15.7207 14.9687 15.4282C14.9686 15.1357 14.9103 14.8461 14.7971 14.5759C14.6839 14.3057 14.5181 14.0602 14.309 13.8535C14.0999 13.6467 13.8517 13.4827 13.5786 13.3709C13.3055 13.2591 13.0128 13.2015 12.7172 13.2016C12.1203 13.2018 11.5479 13.4367 11.1259 13.8545C10.704 14.2724 10.4671 14.839 10.4673 15.4297C10.4674 16.0204 10.7048 16.5869 11.127 17.0044C11.5492 17.422 12.1218 17.6564 12.7187 17.6562Z" fill="#080709"/>
<path d="M32.9687 21.3672L20.2187 8.75H22.0937C22.7117 8.75 23.5772 9.10477 24.0137 9.53672L35.1722 20.579C35.3826 20.7882 35.5008 21.0713 35.5008 21.3664C35.5008 21.6616 35.3826 21.9447 35.1722 22.1539L25.5137 31.7118C25.3024 31.92 25.0162 32.0369 24.718 32.0369C24.4197 32.0369 24.1336 31.92 23.9222 31.7118L23.2172 31.0141L32.9672 21.3657L32.9687 21.3672Z" fill="#080709"/>
</svg>
