<svg width="41" height="40" viewBox="0 0 41 40" fill="none" xmlns="http://www.w3.org/2000/svg">
<path d="M33.8985 13.7467C33.8608 13.6963 33.8015 13.6667 33.7385 13.6667H29.0385C28.9281 13.6667 28.8385 13.5771 28.8385 13.4667V7.2C28.8385 7.08954 28.749 7 28.6385 7H5.58805C5.53501 7 5.48415 7.02106 5.44664 7.05857C4.6423 7.86291 3.8198 8.68541 2.23102 10.2742C2.19351 10.3117 2.17188 10.3631 2.17188 10.4162V28.4667C2.17188 28.5771 2.26142 28.6667 2.37188 28.6667H5.30521C5.41567 28.6667 5.5048 28.7565 5.50912 28.8669C5.61379 31.5403 7.8056 33.6667 10.5052 33.6667C13.2048 33.6667 15.3966 31.5403 15.5013 28.8669C15.5056 28.7565 15.5948 28.6667 15.7052 28.6667H25.3052C25.4157 28.6667 25.5048 28.7565 25.5091 28.8669C25.6138 31.5403 27.8056 33.6667 30.5052 33.6667C33.2048 33.6667 35.3966 31.5403 35.5013 28.8669C35.5056 28.7565 35.5948 28.6667 35.7052 28.6667H38.6385C38.749 28.6667 38.8385 28.5771 38.8385 28.4667V20.4C38.8385 20.3567 38.8245 20.3146 38.7985 20.28L33.8985 13.7467ZM10.5052 31.1667C9.12188 31.1667 8.00521 30.05 8.00521 28.6667C8.00521 27.2833 9.12188 26.1667 10.5052 26.1667C11.8885 26.1667 13.0052 27.2833 13.0052 28.6667C13.0052 30.05 11.8885 31.1667 10.5052 31.1667ZM22.1719 18.4667C22.1719 18.5771 22.0823 18.6667 21.9719 18.6667H9.03854C8.92808 18.6667 8.83854 18.5771 8.83854 18.4667V15.5333C8.83854 15.4229 8.92808 15.3333 9.03854 15.3333H21.9719C22.0823 15.3333 22.1719 15.4229 22.1719 15.5333V18.4667ZM30.5052 31.1667C29.1219 31.1667 28.0052 30.05 28.0052 28.6667C28.0052 27.2833 29.1219 26.1667 30.5052 26.1667C31.8885 26.1667 33.0052 27.2833 33.0052 28.6667C33.0052 30.05 31.8885 31.1667 30.5052 31.1667ZM29.0385 20.3333C28.9281 20.3333 28.8385 20.2438 28.8385 20.1333V16.3667C28.8385 16.2562 28.9281 16.1667 29.0385 16.1667H32.9079C32.9693 16.1667 33.0274 16.1949 33.0653 16.2433L36.0183 20.0099C36.1212 20.1412 36.0277 20.3333 35.8609 20.3333H29.0385Z" fill="#080709"/>
</svg>
