<svg width="40" height="40" viewBox="0 0 40 40" fill="none" xmlns="http://www.w3.org/2000/svg">
<path d="M30.9688 14.252C30.9314 14.1986 30.8703 14.1668 30.8051 14.1668H27.0182C26.9077 14.1668 26.8182 14.0773 26.8182 13.9668V8.5335C26.8182 8.42304 26.7286 8.3335 26.6182 8.3335H7.81407C7.7587 8.3335 7.70581 8.35645 7.66799 8.39689C7.01451 9.09576 6.34291 9.814 5.0544 11.192C5.01975 11.229 5 11.2784 5 11.3291V27.0918C5 27.2023 5.08954 27.2918 5.2 27.2918H7.52727C7.63773 27.2918 7.72683 27.3816 7.73145 27.4919C7.82885 29.8194 9.61726 31.6668 11.8182 31.6668C14.0191 31.6668 15.8075 29.8194 15.9049 27.4919C15.9095 27.3816 15.9986 27.2918 16.1091 27.2918H23.8909C24.0014 27.2918 24.0905 27.3816 24.0951 27.4919C24.1925 29.8194 25.9809 31.6668 28.1818 31.6668C30.3827 31.6668 32.1711 29.8194 32.2685 27.4919C32.2732 27.3816 32.3623 27.2918 32.4727 27.2918H34.8C34.9105 27.2918 35 27.2023 35 27.0918V20.0633C35 20.0222 34.9873 19.9821 34.9637 19.9485L30.9688 14.252ZM11.8182 29.4793C10.6864 29.4793 9.77273 28.5022 9.77273 27.2918C9.77273 26.0814 10.6864 25.1043 11.8182 25.1043C12.95 25.1043 13.8636 26.0814 13.8636 27.2918C13.8636 28.5022 12.95 29.4793 11.8182 29.4793ZM21.3636 18.3418C21.3636 18.4523 21.2741 18.5418 21.1636 18.5418H10.6545C10.5441 18.5418 10.4545 18.4523 10.4545 18.3418V15.8252C10.4545 15.7147 10.5441 15.6252 10.6545 15.6252H21.1636C21.2741 15.6252 21.3636 15.7147 21.3636 15.8252V18.3418ZM28.1818 29.4793C27.05 29.4793 26.1364 28.5022 26.1364 27.2918C26.1364 26.0814 27.05 25.1043 28.1818 25.1043C29.3136 25.1043 30.2273 26.0814 30.2273 27.2918C30.2273 28.5022 29.3136 29.4793 28.1818 29.4793ZM27.0182 20.0002C26.9077 20.0002 26.8182 19.9106 26.8182 19.8002V16.5543C26.8182 16.4439 26.9077 16.3543 27.0182 16.3543H30.1259C30.1896 16.3543 30.2495 16.3847 30.2872 16.4361L32.6667 19.6819C32.7635 19.814 32.6692 20.0002 32.5054 20.0002H27.0182Z" fill="#080709"/>
</svg>
